G04 #@! TF.GenerationSoftware,KiCad,Pcbnew,7.0.2-6a45011f42~172~ubuntu22.04.1*
G04 #@! TF.CreationDate,2023-07-06T23:31:07+02:00*
G04 #@! TF.ProjectId,VR-Stick,56522d53-7469-4636-9b2e-6b696361645f,rev?*
G04 #@! TF.SameCoordinates,Original*
G04 #@! TF.FileFunction,Profile,NP*
%FSLAX46Y46*%
G04 Gerber Fmt 4.6, Leading zero omitted, Abs format (unit mm)*
G04 Created by KiCad (PCBNEW 7.0.2-6a45011f42~172~ubuntu22.04.1) date 2023-07-06 23:31:07*
%MOMM*%
%LPD*%
G01*
G04 APERTURE LIST*
G04 Aperture macros list*
%AMRoundRect*
0 Rectangle with rounded corners*
0 $1 Rounding radius*
0 $2 $3 $4 $5 $6 $7 $8 $9 X,Y pos of 4 corners*
0 Add a 4 corners polygon primitive as box body*
4,1,4,$2,$3,$4,$5,$6,$7,$8,$9,$2,$3,0*
0 Add four circle primitives for the rounded corners*
1,1,$1+$1,$2,$3*
1,1,$1+$1,$4,$5*
1,1,$1+$1,$6,$7*
1,1,$1+$1,$8,$9*
0 Add four rect primitives between the rounded corners*
20,1,$1+$1,$2,$3,$4,$5,0*
20,1,$1+$1,$4,$5,$6,$7,0*
20,1,$1+$1,$6,$7,$8,$9,0*
20,1,$1+$1,$8,$9,$2,$3,0*%
G04 Aperture macros list end*
G04 #@! TA.AperFunction,Profile*
%ADD10C,0.200000*%
G04 #@! TD*
G04 #@! TA.AperFunction,SMDPad,CuDef*
%ADD11RoundRect,0.150000X0.150000X-0.650000X0.150000X0.650000X-0.150000X0.650000X-0.150000X-0.650000X0*%
G04 #@! TD*
G04 #@! TA.AperFunction,SMDPad,CuDef*
%ADD12R,3.200000X2.400000*%
G04 #@! TD*
G04 #@! TA.AperFunction,SMDPad,CuDef*
%ADD13RoundRect,0.250000X-0.450000X0.325000X-0.450000X-0.325000X0.450000X-0.325000X0.450000X0.325000X0*%
G04 #@! TD*
G04 #@! TA.AperFunction,SMDPad,CuDef*
%ADD14RoundRect,0.250000X-0.337500X-0.475000X0.337500X-0.475000X0.337500X0.475000X-0.337500X0.475000X0*%
G04 #@! TD*
G04 #@! TA.AperFunction,SMDPad,CuDef*
%ADD15RoundRect,0.250000X-0.475000X0.337500X-0.475000X-0.337500X0.475000X-0.337500X0.475000X0.337500X0*%
G04 #@! TD*
G04 #@! TA.AperFunction,SMDPad,CuDef*
%ADD16RoundRect,0.250000X0.475000X-0.337500X0.475000X0.337500X-0.475000X0.337500X-0.475000X-0.337500X0*%
G04 #@! TD*
G04 #@! TA.AperFunction,SMDPad,CuDef*
%ADD17RoundRect,0.250000X-0.450000X0.350000X-0.450000X-0.350000X0.450000X-0.350000X0.450000X0.350000X0*%
G04 #@! TD*
G04 #@! TA.AperFunction,SMDPad,CuDef*
%ADD18RoundRect,0.062500X-0.162500X-0.062500X0.162500X-0.062500X0.162500X0.062500X-0.162500X0.062500X0*%
G04 #@! TD*
G04 #@! TA.AperFunction,SMDPad,CuDef*
%ADD19RoundRect,0.062500X0.162500X0.062500X-0.162500X0.062500X-0.162500X-0.062500X0.162500X-0.062500X0*%
G04 #@! TD*
G04 #@! TA.AperFunction,SMDPad,CuDef*
%ADD20RoundRect,0.250000X0.450000X-0.350000X0.450000X0.350000X-0.450000X0.350000X-0.450000X-0.350000X0*%
G04 #@! TD*
G04 #@! TA.AperFunction,SMDPad,CuDef*
%ADD21RoundRect,0.020000X-0.760000X-0.180000X0.760000X-0.180000X0.760000X0.180000X-0.760000X0.180000X0*%
G04 #@! TD*
G04 #@! TA.AperFunction,SMDPad,CuDef*
%ADD22RoundRect,0.250000X0.650000X-0.412500X0.650000X0.412500X-0.650000X0.412500X-0.650000X-0.412500X0*%
G04 #@! TD*
G04 #@! TA.AperFunction,SMDPad,CuDef*
%ADD23RoundRect,0.250000X-0.650000X0.412500X-0.650000X-0.412500X0.650000X-0.412500X0.650000X0.412500X0*%
G04 #@! TD*
G04 #@! TA.AperFunction,SMDPad,CuDef*
%ADD24RoundRect,0.042000X0.258000X-0.943000X0.258000X0.943000X-0.258000X0.943000X-0.258000X-0.943000X0*%
G04 #@! TD*
G04 #@! TA.AperFunction,SMDPad,CuDef*
%ADD25R,3.302000X2.413000*%
G04 #@! TD*
G04 #@! TA.AperFunction,SMDPad,CuDef*
%ADD26RoundRect,0.250000X0.350000X0.450000X-0.350000X0.450000X-0.350000X-0.450000X0.350000X-0.450000X0*%
G04 #@! TD*
G04 #@! TA.AperFunction,SMDPad,CuDef*
%ADD27R,4.500000X2.000000*%
G04 #@! TD*
G04 #@! TA.AperFunction,ComponentPad*
%ADD28R,1.700000X1.700000*%
G04 #@! TD*
G04 #@! TA.AperFunction,ComponentPad*
%ADD29O,1.700000X1.700000*%
G04 #@! TD*
G04 #@! TA.AperFunction,SMDPad,CuDef*
%ADD30RoundRect,0.250000X0.625000X-0.400000X0.625000X0.400000X-0.625000X0.400000X-0.625000X-0.400000X0*%
G04 #@! TD*
G04 #@! TA.AperFunction,SMDPad,CuDef*
%ADD31RoundRect,0.250000X0.412500X0.650000X-0.412500X0.650000X-0.412500X-0.650000X0.412500X-0.650000X0*%
G04 #@! TD*
G04 #@! TA.AperFunction,SMDPad,CuDef*
%ADD32RoundRect,0.155000X0.155000X-0.212500X0.155000X0.212500X-0.155000X0.212500X-0.155000X-0.212500X0*%
G04 #@! TD*
G04 #@! TA.AperFunction,SMDPad,CuDef*
%ADD33RoundRect,0.150000X-0.150000X0.825000X-0.150000X-0.825000X0.150000X-0.825000X0.150000X0.825000X0*%
G04 #@! TD*
G04 #@! TA.AperFunction,SMDPad,CuDef*
%ADD34RoundRect,0.062500X-0.062500X0.375000X-0.062500X-0.375000X0.062500X-0.375000X0.062500X0.375000X0*%
G04 #@! TD*
G04 #@! TA.AperFunction,SMDPad,CuDef*
%ADD35RoundRect,0.062500X-0.375000X0.062500X-0.375000X-0.062500X0.375000X-0.062500X0.375000X0.062500X0*%
G04 #@! TD*
G04 #@! TA.AperFunction,SMDPad,CuDef*
%ADD36R,2.150000X2.150000*%
G04 #@! TD*
G04 #@! TA.AperFunction,SMDPad,CuDef*
%ADD37RoundRect,0.150000X-0.150000X0.587500X-0.150000X-0.587500X0.150000X-0.587500X0.150000X0.587500X0*%
G04 #@! TD*
G04 #@! TA.AperFunction,SMDPad,CuDef*
%ADD38RoundRect,0.150000X0.150000X-0.512500X0.150000X0.512500X-0.150000X0.512500X-0.150000X-0.512500X0*%
G04 #@! TD*
G04 #@! TA.AperFunction,SMDPad,CuDef*
%ADD39R,1.550000X1.300000*%
G04 #@! TD*
G04 #@! TA.AperFunction,SMDPad,CuDef*
%ADD40RoundRect,0.250000X0.450000X-0.325000X0.450000X0.325000X-0.450000X0.325000X-0.450000X-0.325000X0*%
G04 #@! TD*
G04 #@! TA.AperFunction,SMDPad,CuDef*
%ADD41R,0.600000X1.150000*%
G04 #@! TD*
G04 #@! TA.AperFunction,SMDPad,CuDef*
%ADD42R,0.300000X1.150000*%
G04 #@! TD*
G04 #@! TA.AperFunction,ComponentPad*
%ADD43O,1.000000X2.100000*%
G04 #@! TD*
G04 #@! TA.AperFunction,ComponentPad*
%ADD44O,1.000000X1.800000*%
G04 #@! TD*
G04 #@! TA.AperFunction,ComponentPad*
%ADD45C,2.600000*%
G04 #@! TD*
G04 #@! TA.AperFunction,ConnectorPad*
%ADD46C,3.800000*%
G04 #@! TD*
G04 #@! TA.AperFunction,ComponentPad*
%ADD47R,3.500000X3.500000*%
G04 #@! TD*
G04 #@! TA.AperFunction,ComponentPad*
%ADD48C,3.500000*%
G04 #@! TD*
G04 #@! TA.AperFunction,ViaPad*
%ADD49C,0.800000*%
G04 #@! TD*
G04 #@! TA.AperFunction,Conductor*
%ADD50C,0.500000*%
G04 #@! TD*
G04 #@! TA.AperFunction,Conductor*
%ADD51C,0.200000*%
G04 #@! TD*
G04 #@! TA.AperFunction,Conductor*
%ADD52C,0.320000*%
G04 #@! TD*
%ADD53C,0.350000*%
%ADD54O,0.600000X1.700000*%
%ADD55O,0.600000X1.400000*%
G04 APERTURE END LIST*
D10*
X109220000Y-40044200D02*
X18999200Y-40044200D01*
X19050000Y-19648000D01*
X19050000Y-17743000D01*
X109220000Y-17743000D01*
X109220000Y-40044200D01*
G04 #@! TA.AperFunction,NonConductor*
G36*
X91810000Y-38527000D02*
G01*
X96790000Y-38527000D01*
X96790000Y-39027000D01*
X91810000Y-39027000D01*
X91810000Y-38527000D01*
G37*
G04 #@! TD.AperFunction*
G04 #@! TA.AperFunction,NonConductor*
G36*
X94112000Y-33617000D02*
G01*
X94612000Y-33617000D01*
X94612000Y-39027000D01*
X94112000Y-39027000D01*
X94112000Y-33617000D01*
G37*
G04 #@! TD.AperFunction*
G04 #@! TA.AperFunction,NonConductor*
G36*
X103470000Y-35857000D02*
G01*
X104000000Y-35857000D01*
X104000000Y-39027000D01*
X103470000Y-39027000D01*
X103470000Y-35857000D01*
G37*
G04 #@! TD.AperFunction*
G04 #@! TA.AperFunction,NonConductor*
G36*
X105680000Y-35857000D02*
G01*
X108710000Y-35857000D01*
X108710000Y-36377000D01*
X105680000Y-36377000D01*
X105680000Y-35857000D01*
G37*
G04 #@! TD.AperFunction*
G04 #@! TA.AperFunction,NonConductor*
G36*
X105680000Y-35857000D02*
G01*
X106210000Y-35857000D01*
X106210000Y-39027000D01*
X105680000Y-39027000D01*
X105680000Y-35857000D01*
G37*
G04 #@! TD.AperFunction*
G04 #@! TA.AperFunction,NonConductor*
G36*
X100970000Y-35857000D02*
G01*
X101500000Y-35857000D01*
X101500000Y-39027000D01*
X100970000Y-39027000D01*
X100970000Y-35857000D01*
G37*
G04 #@! TD.AperFunction*
G04 #@! TA.AperFunction,NonConductor*
G36*
X98760000Y-35857000D02*
G01*
X99290000Y-35857000D01*
X99290000Y-39027000D01*
X98760000Y-39027000D01*
X98760000Y-35857000D01*
G37*
G04 #@! TD.AperFunction*
G04 #@! TA.AperFunction,NonConductor*
G36*
X96260000Y-35857000D02*
G01*
X99290000Y-35857000D01*
X99290000Y-36377000D01*
X96260000Y-36377000D01*
X96260000Y-35857000D01*
G37*
G04 #@! TD.AperFunction*
G04 #@! TA.AperFunction,NonConductor*
G36*
X98760000Y-38497000D02*
G01*
X101500000Y-38497000D01*
X101500000Y-39027000D01*
X98760000Y-39027000D01*
X98760000Y-38497000D01*
G37*
G04 #@! TD.AperFunction*
G04 #@! TA.AperFunction,NonConductor*
G36*
X96260000Y-35857000D02*
G01*
X96790000Y-35857000D01*
X96790000Y-39027000D01*
X96260000Y-39027000D01*
X96260000Y-35857000D01*
G37*
G04 #@! TD.AperFunction*
G04 #@! TA.AperFunction,NonConductor*
G36*
X100970000Y-35857000D02*
G01*
X104000000Y-35857000D01*
X104000000Y-36377000D01*
X100970000Y-36377000D01*
X100970000Y-35857000D01*
G37*
G04 #@! TD.AperFunction*
G04 #@! TA.AperFunction,NonConductor*
G36*
X91810000Y-33617000D02*
G01*
X92710000Y-33617000D01*
X92710000Y-39027000D01*
X91810000Y-39027000D01*
X91810000Y-33617000D01*
G37*
G04 #@! TD.AperFunction*
G04 #@! TA.AperFunction,NonConductor*
G36*
X103470000Y-38497000D02*
G01*
X106210000Y-38497000D01*
X106210000Y-39027000D01*
X103470000Y-39027000D01*
X103470000Y-38497000D01*
G37*
G04 #@! TD.AperFunction*
G04 #@! TA.AperFunction,NonConductor*
G36*
X108180000Y-35857000D02*
G01*
X108710000Y-35857000D01*
X108710000Y-39027000D01*
X108180000Y-39027000D01*
X108180000Y-35857000D01*
G37*
G04 #@! TD.AperFunction*
D11*
X54229000Y-27378000D03*
X55499000Y-27378000D03*
X56769000Y-27378000D03*
X58039000Y-27378000D03*
X58039000Y-22078000D03*
X56769000Y-22078000D03*
X55499000Y-22078000D03*
X54229000Y-22078000D03*
D12*
X56134000Y-24728000D03*
D13*
X51079400Y-33151800D03*
X51079400Y-35201800D03*
D14*
X99013100Y-23559600D03*
X101088100Y-23559600D03*
D15*
X98780600Y-19524900D03*
X98780600Y-21599900D03*
D16*
X82575400Y-27755500D03*
X82575400Y-25680500D03*
D17*
X101422200Y-19562400D03*
X101422200Y-21562400D03*
D18*
X95406000Y-31996000D03*
D19*
X95406000Y-31496000D03*
X95406000Y-30996000D03*
X94586000Y-30996000D03*
X94586000Y-31496000D03*
X94586000Y-31996000D03*
D20*
X72136000Y-27912400D03*
X72136000Y-25912400D03*
D17*
X77216000Y-25924000D03*
X77216000Y-27924000D03*
D21*
X34458000Y-25695000D03*
X34458000Y-26345000D03*
X34458000Y-26995000D03*
X34458000Y-27645000D03*
X40218000Y-27645000D03*
X40218000Y-26995000D03*
X40218000Y-26345000D03*
X40218000Y-25695000D03*
D17*
X74676000Y-25912400D03*
X74676000Y-27912400D03*
D22*
X62738000Y-25946500D03*
X62738000Y-22821500D03*
D20*
X90297000Y-27718000D03*
X90297000Y-25718000D03*
D17*
X60071000Y-23638000D03*
X60071000Y-25638000D03*
D15*
X65532000Y-23600500D03*
X65532000Y-25675500D03*
D23*
X32258000Y-20676300D03*
X32258000Y-23801300D03*
D24*
X45008800Y-34823000D03*
X46278800Y-34823000D03*
X47548800Y-34823000D03*
X48818800Y-34823000D03*
X48818800Y-29873000D03*
X47548800Y-29873000D03*
X46278800Y-29873000D03*
X45008800Y-29873000D03*
D25*
X46913800Y-32348000D03*
D26*
X46085000Y-37174000D03*
X44085000Y-37174000D03*
D27*
X85920000Y-21172000D03*
X94420000Y-21172000D03*
D22*
X79933800Y-28525700D03*
X79933800Y-25400700D03*
D28*
X45974000Y-23114000D03*
D29*
X48514000Y-23114000D03*
X51054000Y-23114000D03*
D20*
X51079400Y-31468400D03*
X51079400Y-29468400D03*
D30*
X39878000Y-23585600D03*
X39878000Y-20485600D03*
D31*
X51092500Y-37174000D03*
X47967500Y-37174000D03*
D32*
X93472000Y-32004000D03*
X93472000Y-30869000D03*
D33*
X72796400Y-30838200D03*
X71526400Y-30838200D03*
X70256400Y-30838200D03*
X68986400Y-30838200D03*
X68986400Y-35788200D03*
X70256400Y-35788200D03*
X71526400Y-35788200D03*
X72796400Y-35788200D03*
D34*
X95509400Y-25533700D03*
X95009400Y-25533700D03*
X94509400Y-25533700D03*
X94009400Y-25533700D03*
X93509400Y-25533700D03*
X93009400Y-25533700D03*
D35*
X92321900Y-26221200D03*
X92321900Y-26721200D03*
X92321900Y-27221200D03*
X92321900Y-27721200D03*
X92321900Y-28221200D03*
X92321900Y-28721200D03*
D34*
X93009400Y-29408700D03*
X93509400Y-29408700D03*
X94009400Y-29408700D03*
X94509400Y-29408700D03*
X95009400Y-29408700D03*
X95509400Y-29408700D03*
D35*
X96196900Y-28721200D03*
X96196900Y-28221200D03*
X96196900Y-27721200D03*
X96196900Y-27221200D03*
X96196900Y-26721200D03*
X96196900Y-26221200D03*
D36*
X94259400Y-27471200D03*
D23*
X88976200Y-32969900D03*
X88976200Y-36094900D03*
D37*
X69784000Y-25998000D03*
X67884000Y-25998000D03*
X68834000Y-27873000D03*
D38*
X35118000Y-23223900D03*
X36068000Y-23223900D03*
X37018000Y-23223900D03*
X37018000Y-20948900D03*
X36068000Y-20948900D03*
X35118000Y-20948900D03*
D28*
X56464200Y-36310400D03*
D29*
X56464200Y-33770400D03*
X59004200Y-36310400D03*
X59004200Y-33770400D03*
X61544200Y-36310400D03*
X61544200Y-33770400D03*
X64084200Y-36310400D03*
X64084200Y-33770400D03*
D39*
X78498800Y-32231600D03*
X86448800Y-32231600D03*
X78498800Y-36731600D03*
X86448800Y-36731600D03*
D17*
X42672000Y-21086400D03*
X42672000Y-23086400D03*
D40*
X87655400Y-27743000D03*
X87655400Y-25693000D03*
D41*
X33160000Y-31208000D03*
D42*
X34310000Y-31208000D03*
X35310000Y-31208000D03*
X35810000Y-31208000D03*
X36810000Y-31208000D03*
D41*
X37960000Y-31208000D03*
X38760000Y-31208000D03*
D42*
X37310000Y-31208000D03*
X36310000Y-31208000D03*
X34810000Y-31208000D03*
X33810000Y-31208000D03*
D41*
X33160000Y-31208000D03*
X32360000Y-31208000D03*
D43*
X31240000Y-31783000D03*
D44*
X31240000Y-35963000D03*
D43*
X39880000Y-31783000D03*
D44*
X39880000Y-35963000D03*
D45*
X22707600Y-21629200D03*
D46*
X22707600Y-21629200D03*
D47*
X100203000Y-28411000D03*
D48*
X28203000Y-28411000D03*
D28*
X107315000Y-20283000D03*
D29*
X104775000Y-20283000D03*
X107315000Y-22823000D03*
X104775000Y-22823000D03*
X107315000Y-25363000D03*
X104775000Y-25363000D03*
D28*
X20955000Y-36793000D03*
D29*
X23495000Y-36793000D03*
X20955000Y-34253000D03*
X23495000Y-34253000D03*
X20955000Y-31713000D03*
X23495000Y-31713000D03*
D49*
X92710000Y-32766000D03*
X85598000Y-39116000D03*
X42945657Y-27959657D03*
X96520000Y-32258000D03*
X102285800Y-22797600D03*
X78994000Y-23622000D03*
X90869500Y-24321500D03*
X60344250Y-28448000D03*
X74422000Y-29718000D03*
X74422000Y-34544000D03*
X93731122Y-23108878D03*
X97536000Y-29718000D03*
X88900000Y-29796800D03*
X88925400Y-31327500D03*
X108432600Y-27471200D03*
X76573800Y-37464700D03*
X49691312Y-27778688D03*
X60814500Y-20428500D03*
X75930000Y-24638000D03*
X87799429Y-29198400D03*
D50*
X78994000Y-21590000D02*
X81587600Y-18996400D01*
D51*
X93472000Y-32004000D02*
X93077975Y-32398025D01*
D50*
X81587600Y-18996400D02*
X98252100Y-18996400D01*
X44085000Y-37174000D02*
X41091000Y-37174000D01*
X59274250Y-27378000D02*
X58039000Y-27378000D01*
X47980600Y-35254800D02*
X47548800Y-34823000D01*
X101523800Y-23559600D02*
X102285800Y-22797600D01*
X42203314Y-28702000D02*
X42945657Y-27959657D01*
X47980600Y-37160900D02*
X47980600Y-35254800D01*
X31845000Y-32624726D02*
X31845000Y-31723000D01*
X77273800Y-35506600D02*
X77273800Y-31185700D01*
D52*
X87655400Y-27743000D02*
X85592900Y-25680500D01*
D50*
X42672000Y-23086400D02*
X43256200Y-23670600D01*
X101387400Y-19597200D02*
X101422200Y-19562400D01*
D52*
X91357000Y-24809000D02*
X91357000Y-26721200D01*
D50*
X43241948Y-27663366D02*
X42945657Y-27959657D01*
D52*
X90956470Y-26721200D02*
X88677200Y-26721200D01*
D50*
X34458000Y-26995000D02*
X32658000Y-26995000D01*
D51*
X92653012Y-32822987D02*
X92258987Y-33217012D01*
D50*
X58039000Y-25540800D02*
X58039000Y-27378000D01*
D51*
X92202000Y-33274000D02*
X92202000Y-38608000D01*
D50*
X44620000Y-38524000D02*
X47328000Y-38524000D01*
X39275000Y-31723000D02*
X39275000Y-32624726D01*
X77273800Y-31185700D02*
X79933800Y-28525700D01*
X102692200Y-22391200D02*
X102692200Y-20460800D01*
X32328274Y-33108000D02*
X31845000Y-32624726D01*
X30810200Y-32212800D02*
X31240000Y-31783000D01*
X32360000Y-28406120D02*
X32655880Y-28702000D01*
X67818000Y-23622000D02*
X65553500Y-23622000D01*
X47967500Y-37174000D02*
X47980600Y-37160900D01*
X67884000Y-25998000D02*
X67884000Y-23688000D01*
D52*
X95758000Y-31496000D02*
X95406000Y-31496000D01*
D50*
X39275000Y-32624726D02*
X38791726Y-33108000D01*
X101088100Y-23559600D02*
X101523800Y-23559600D01*
X58039000Y-24872000D02*
X58039000Y-25540800D01*
X62738000Y-25946500D02*
X62738000Y-24892000D01*
X38791726Y-33108000D02*
X32328274Y-33108000D01*
X39880000Y-35963000D02*
X40259000Y-35584000D01*
X88976200Y-36094900D02*
X87085500Y-36094900D01*
X47328000Y-38524000D02*
X47967500Y-37884500D01*
X101793800Y-19562400D02*
X101422200Y-19562400D01*
X74676000Y-24384000D02*
X73914000Y-23622000D01*
X60344250Y-28448000D02*
X59274250Y-27378000D01*
X87085500Y-36094900D02*
X85598000Y-37582400D01*
X32360000Y-31208000D02*
X32360000Y-30133000D01*
X43241948Y-24031052D02*
X43241948Y-27663366D01*
X32360000Y-27293000D02*
X32360000Y-28406120D01*
X39880000Y-31783000D02*
X39820000Y-31723000D01*
X62738000Y-24892000D02*
X64029500Y-23600500D01*
D51*
X93317500Y-32158500D02*
X92610500Y-32865500D01*
D50*
X57895000Y-24728000D02*
X58039000Y-24872000D01*
D52*
X84772500Y-25680500D02*
X85217000Y-25680500D01*
D50*
X38760000Y-31208000D02*
X39275000Y-31723000D01*
X43256200Y-23670600D02*
X43256200Y-24016800D01*
D52*
X102313000Y-22824800D02*
X102285800Y-22797600D01*
D50*
X85598000Y-39116000D02*
X80883200Y-39116000D01*
D52*
X81915000Y-28538000D02*
X84772500Y-25680500D01*
D50*
X85598000Y-37582400D02*
X85598000Y-39116000D01*
X31845000Y-31723000D02*
X32360000Y-31208000D01*
X98852900Y-19597200D02*
X101387400Y-19597200D01*
X32658000Y-26995000D02*
X32360000Y-27293000D01*
X65553500Y-23622000D02*
X65532000Y-23600500D01*
X78994000Y-23622000D02*
X78994000Y-21590000D01*
X39820000Y-31723000D02*
X39275000Y-31723000D01*
D52*
X90869500Y-24321500D02*
X91357000Y-24809000D01*
X79946100Y-28538000D02*
X81915000Y-28538000D01*
D50*
X44085000Y-37989000D02*
X44620000Y-38524000D01*
X100756000Y-32258000D02*
X96520000Y-32258000D01*
X44085000Y-35746800D02*
X45008800Y-34823000D01*
X62738000Y-26054250D02*
X62738000Y-25946500D01*
X73914000Y-23622000D02*
X67077500Y-23622000D01*
X31240000Y-35963000D02*
X30810200Y-35533200D01*
X98252100Y-18996400D02*
X98780600Y-19524900D01*
X80883200Y-39116000D02*
X78498800Y-36731600D01*
X30810200Y-35533200D02*
X30810200Y-32212800D01*
D52*
X92321900Y-26721200D02*
X90956470Y-26721200D01*
D50*
X78498800Y-36731600D02*
X77273800Y-35506600D01*
X31240000Y-31783000D02*
X31785000Y-31783000D01*
X102692200Y-20460800D02*
X101793800Y-19562400D01*
D52*
X96520000Y-32258000D02*
X95758000Y-31496000D01*
D50*
X41091000Y-37174000D02*
X39880000Y-35963000D01*
X32655880Y-28702000D02*
X42203314Y-28702000D01*
X67884000Y-23688000D02*
X67818000Y-23622000D01*
X47967500Y-37884500D02*
X47967500Y-37174000D01*
X60344250Y-28448000D02*
X62738000Y-26054250D01*
X32360000Y-28406120D02*
X32360000Y-30133000D01*
X44085000Y-37174000D02*
X44085000Y-35746800D01*
X74676000Y-25912400D02*
X74676000Y-24384000D01*
D52*
X88677200Y-26721200D02*
X87655400Y-27743000D01*
D50*
X98780600Y-19524900D02*
X98852900Y-19597200D01*
X64029500Y-23600500D02*
X65532000Y-23600500D01*
X31785000Y-31783000D02*
X31845000Y-31723000D01*
X40259000Y-35584000D02*
X40259000Y-32162000D01*
D52*
X91357000Y-26721200D02*
X90956470Y-26721200D01*
D50*
X40259000Y-32162000D02*
X39880000Y-31783000D01*
D52*
X85592900Y-25680500D02*
X85217000Y-25680500D01*
D50*
X102692200Y-30321800D02*
X100756000Y-32258000D01*
X56134000Y-24728000D02*
X57895000Y-24728000D01*
X31240000Y-35963000D02*
X39880000Y-35963000D01*
X43256200Y-24016800D02*
X43241948Y-24031052D01*
X102692200Y-22391200D02*
X102692200Y-30321800D01*
X44085000Y-37174000D02*
X44085000Y-37989000D01*
X102285800Y-22797600D02*
X102692200Y-22391200D01*
X70256400Y-34442400D02*
X70256400Y-35788200D01*
D52*
X93731122Y-23108878D02*
X95009400Y-24387156D01*
D50*
X68986400Y-35788200D02*
X70726600Y-35788200D01*
D52*
X95009400Y-24387156D02*
X95009400Y-25533700D01*
X97028000Y-30226000D02*
X95763400Y-30226000D01*
D50*
X66289000Y-30475000D02*
X70256400Y-34442400D01*
X55710000Y-29300000D02*
X55710000Y-29786500D01*
X70256400Y-35788200D02*
X68986400Y-35788200D01*
X70740800Y-35802400D02*
X72782200Y-35802400D01*
X55710000Y-27589000D02*
X55499000Y-27378000D01*
X70726600Y-35788200D02*
X70740800Y-35802400D01*
D52*
X97536000Y-29718000D02*
X97028000Y-30226000D01*
X95763400Y-30226000D02*
X95509400Y-29972000D01*
D50*
X55710000Y-29786500D02*
X56398500Y-30475000D01*
D52*
X95509400Y-29972000D02*
X95509400Y-29408700D01*
D50*
X65786000Y-30221000D02*
X65786000Y-25929500D01*
X54229000Y-27378000D02*
X55499000Y-27378000D01*
X56398500Y-30475000D02*
X66040000Y-30475000D01*
X74422000Y-34544000D02*
X73177800Y-35788200D01*
X73177800Y-35788200D02*
X72796400Y-35788200D01*
X66040000Y-30475000D02*
X65786000Y-30221000D01*
X55710000Y-29300000D02*
X55710000Y-27589000D01*
X65786000Y-25929500D02*
X65532000Y-25675500D01*
X66040000Y-30475000D02*
X66289000Y-30475000D01*
D52*
X74422000Y-29718000D02*
X73941600Y-29718000D01*
X73941600Y-29718000D02*
X72136000Y-27912400D01*
D50*
X72782200Y-35802400D02*
X72796400Y-35788200D01*
D51*
X94509400Y-24876400D02*
X94509400Y-25533700D01*
X79933800Y-25400700D02*
X79933800Y-24778800D01*
X79933800Y-24778800D02*
X81598600Y-23114000D01*
X81598600Y-23114000D02*
X92747000Y-23114000D01*
X92747000Y-23114000D02*
X94509400Y-24876400D01*
X94009400Y-24986000D02*
X92645400Y-23622000D01*
X92645400Y-23622000D02*
X83935400Y-23622000D01*
X83935400Y-23622000D02*
X82575400Y-24982000D01*
X94009400Y-25533700D02*
X94009400Y-24986000D01*
X82575400Y-24982000D02*
X82575400Y-25519300D01*
D52*
X93009400Y-29768032D02*
X92729432Y-30048000D01*
X93009400Y-29408700D02*
X93009400Y-29768032D01*
X88925400Y-32258000D02*
X88925400Y-32919100D01*
X86448800Y-32231600D02*
X86448800Y-32092800D01*
X78498800Y-32231600D02*
X78726400Y-32004000D01*
X78726400Y-32004000D02*
X86360000Y-32004000D01*
X89151200Y-30048000D02*
X88900000Y-29796800D01*
X86448800Y-32092800D02*
X86360000Y-32004000D01*
X92729432Y-30048000D02*
X89151200Y-30048000D01*
X88925400Y-31327500D02*
X88925400Y-32258000D01*
X86360000Y-32004000D02*
X88925400Y-32004000D01*
D51*
X94061000Y-30561000D02*
X93980000Y-30480000D01*
X93472000Y-30869000D02*
X93942000Y-30869000D01*
X94586000Y-31496000D02*
X94511000Y-31421000D01*
X94061000Y-30988000D02*
X94061000Y-30561000D01*
X94061000Y-31208652D02*
X94061000Y-30988000D01*
X93980000Y-30474024D02*
X93509400Y-30003424D01*
X94511000Y-31421000D02*
X94273348Y-31421000D01*
X93980000Y-30480000D02*
X93980000Y-30474024D01*
X94273348Y-31421000D02*
X94061000Y-31208652D01*
X93509400Y-29408700D02*
X93509400Y-30003424D01*
X93942000Y-30869000D02*
X94061000Y-30988000D01*
D50*
X33782000Y-20676300D02*
X34845400Y-20676300D01*
X33376300Y-20676300D02*
X33782000Y-20676300D01*
X28203000Y-28411000D02*
X28993000Y-28411000D01*
X34845400Y-20676300D02*
X35118000Y-20948900D01*
X33782000Y-25378600D02*
X33782000Y-20676300D01*
X28993000Y-28411000D02*
X31709000Y-25695000D01*
X31709000Y-25695000D02*
X34458000Y-25695000D01*
X33376300Y-20676300D02*
X32258000Y-20676300D01*
X36068000Y-19498000D02*
X37261800Y-19498000D01*
X40208200Y-20105200D02*
X40208200Y-20485600D01*
X30734000Y-19812000D02*
X31048000Y-19498000D01*
X31048000Y-19498000D02*
X36068000Y-19498000D01*
X30734000Y-21756200D02*
X30734000Y-19812000D01*
X37261800Y-19498000D02*
X39601000Y-19498000D01*
X36068000Y-19498000D02*
X36068000Y-20948900D01*
X32258000Y-23280200D02*
X30734000Y-21756200D01*
X32258000Y-23801300D02*
X32258000Y-23280200D01*
X39601000Y-19498000D02*
X40208200Y-20105200D01*
X55917000Y-20828000D02*
X59182000Y-20828000D01*
X54229000Y-21172000D02*
X54229000Y-22078000D01*
X60690000Y-23638000D02*
X61506500Y-22821500D01*
X49276000Y-23114000D02*
X49276000Y-21045000D01*
X54229000Y-22078000D02*
X55499000Y-22078000D01*
X60071000Y-23638000D02*
X60690000Y-23638000D01*
X55499000Y-22078000D02*
X55499000Y-21246000D01*
X53975000Y-20918000D02*
X54229000Y-21172000D01*
X49403000Y-20918000D02*
X53975000Y-20918000D01*
X49276000Y-21045000D02*
X49403000Y-20918000D01*
X59182000Y-20828000D02*
X60071000Y-21717000D01*
X55499000Y-21246000D02*
X55917000Y-20828000D01*
X61506500Y-22821500D02*
X62738000Y-22821500D01*
X60071000Y-21717000D02*
X60071000Y-23638000D01*
D52*
X87655400Y-25693000D02*
X90272000Y-25693000D01*
X90272000Y-25693000D02*
X90297000Y-25718000D01*
D50*
X51079400Y-33151800D02*
X51079400Y-31468400D01*
D52*
X40218000Y-26995000D02*
X38455351Y-26995000D01*
X38455351Y-26995000D02*
X35118000Y-23657649D01*
X35118000Y-23657649D02*
X35118000Y-23223900D01*
D51*
X36068000Y-23223900D02*
X36068000Y-23876000D01*
X36068000Y-23876000D02*
X36830000Y-24638000D01*
X41608000Y-21651800D02*
X42173400Y-21086400D01*
X42173400Y-21086400D02*
X42672000Y-21086400D01*
X36830000Y-24638000D02*
X41009400Y-24638000D01*
X41009400Y-24638000D02*
X41608000Y-24039400D01*
X41608000Y-24039400D02*
X41608000Y-21651800D01*
D52*
X34392000Y-23978000D02*
X34392000Y-22281076D01*
X34392000Y-22281076D02*
X34575076Y-22098000D01*
X35285401Y-27645000D02*
X35598000Y-27332401D01*
X37018000Y-22286000D02*
X37018000Y-23223900D01*
X35598000Y-25184000D02*
X34392000Y-23978000D01*
X34575076Y-22098000D02*
X36830000Y-22098000D01*
X36830000Y-22098000D02*
X37018000Y-22286000D01*
X34458000Y-27645000D02*
X35285401Y-27645000D01*
X35598000Y-27332401D02*
X35598000Y-25184000D01*
D50*
X76543800Y-30838200D02*
X76573800Y-30868200D01*
X71884000Y-18798000D02*
X78486000Y-25400000D01*
X78486000Y-25400000D02*
X78486000Y-28956000D01*
X20955000Y-36793000D02*
X19431000Y-35269000D01*
X30478000Y-18798000D02*
X71884000Y-18798000D01*
X107340400Y-20308400D02*
X107315000Y-20283000D01*
X19431000Y-29845000D02*
X30478000Y-18798000D01*
X70256400Y-30838200D02*
X72796400Y-30838200D01*
X19431000Y-35269000D02*
X19431000Y-29845000D01*
X72796400Y-30838200D02*
X76543800Y-30838200D01*
X108432600Y-27471200D02*
X108839000Y-27064800D01*
X76573800Y-30868200D02*
X76573800Y-31992400D01*
X107924600Y-20308400D02*
X107340400Y-20308400D01*
X108839000Y-21222800D02*
X107924600Y-20308400D01*
X78486000Y-28956000D02*
X76573800Y-30868200D01*
X108839000Y-27064800D02*
X108839000Y-21222800D01*
X76573800Y-30868200D02*
X76573800Y-37464700D01*
D52*
X45974000Y-19812000D02*
X41746000Y-19812000D01*
D50*
X45847000Y-19939000D02*
X45974000Y-19812000D01*
D52*
X41148000Y-22860000D02*
X40422400Y-23585600D01*
D50*
X60814500Y-20428500D02*
X60198000Y-19812000D01*
X49691312Y-27778688D02*
X48818800Y-28651200D01*
D52*
X41746000Y-19812000D02*
X41148000Y-20410000D01*
D50*
X48818800Y-28651200D02*
X48818800Y-29873000D01*
D52*
X40422400Y-23585600D02*
X40208200Y-23585600D01*
D50*
X60198000Y-19812000D02*
X45974000Y-19812000D01*
X45847000Y-22225000D02*
X45847000Y-19939000D01*
D52*
X41148000Y-20410000D02*
X41148000Y-22860000D01*
D50*
X46736000Y-23114000D02*
X45847000Y-22225000D01*
D51*
X94509400Y-29872052D02*
X95406000Y-30768652D01*
X95406000Y-30768652D02*
X95406000Y-30996000D01*
X94509400Y-29408700D02*
X94509400Y-29872052D01*
X94519831Y-30929831D02*
X94586000Y-30996000D01*
X94519831Y-30448169D02*
X94519831Y-30929831D01*
X94009400Y-29937738D02*
X94009400Y-29408700D01*
X94519831Y-30448169D02*
X94009400Y-29937738D01*
D52*
X69784000Y-24958000D02*
X70510000Y-24232000D01*
X73406000Y-27432000D02*
X73886400Y-27912400D01*
X70510000Y-24232000D02*
X72746000Y-24232000D01*
X77204400Y-27912400D02*
X77216000Y-27924000D01*
X74676000Y-27912400D02*
X77204400Y-27912400D01*
X69784000Y-25998000D02*
X69784000Y-24958000D01*
X73886400Y-27912400D02*
X74676000Y-27912400D01*
X72746000Y-24232000D02*
X73406000Y-24892000D01*
X73406000Y-24892000D02*
X73406000Y-27432000D01*
X68834000Y-30685800D02*
X68834000Y-27649000D01*
X69887000Y-27649000D02*
X68834000Y-27649000D01*
X68834000Y-27649000D02*
X68834000Y-27873000D01*
X72136000Y-25912400D02*
X71623600Y-25912400D01*
X68986400Y-30838200D02*
X68834000Y-30685800D01*
X71623600Y-25912400D02*
X69887000Y-27649000D01*
D51*
X90859800Y-28221200D02*
X92321900Y-28221200D01*
X90347800Y-27709200D02*
X90859800Y-28221200D01*
X88295829Y-28702000D02*
X92302700Y-28702000D01*
D50*
X76708000Y-24638000D02*
X77216000Y-25146000D01*
X77216000Y-25146000D02*
X77216000Y-25924000D01*
X75930000Y-24638000D02*
X76708000Y-24638000D01*
D51*
X92302700Y-28702000D02*
X92321900Y-28721200D01*
X87799429Y-29198400D02*
X88295829Y-28702000D01*
D52*
X59166000Y-25638000D02*
X60071000Y-25638000D01*
X58039000Y-23241000D02*
X58039000Y-23114000D01*
X58649000Y-25121000D02*
X59166000Y-25638000D01*
X58039000Y-23304500D02*
X58649000Y-23914500D01*
X58039000Y-23114000D02*
X58039000Y-23304500D01*
X58649000Y-23914500D02*
X58649000Y-25121000D01*
X58039000Y-23114000D02*
X58039000Y-22078000D01*
D50*
X46304200Y-34848400D02*
X46278800Y-34823000D01*
X46085000Y-37174000D02*
X46304200Y-36954800D01*
X46304200Y-36954800D02*
X46304200Y-34848400D01*
X51079400Y-29468400D02*
X51079400Y-27965400D01*
X51079400Y-27965400D02*
X49887600Y-26773600D01*
X49887600Y-26773600D02*
X47272918Y-26773600D01*
X47272918Y-26773600D02*
X46278800Y-27767718D01*
X46278800Y-27767718D02*
X46278800Y-29873000D01*
D51*
X94283000Y-38813000D02*
X94234000Y-38862000D01*
X92202000Y-38862000D02*
X93218000Y-38862000D01*
X94283000Y-33733000D02*
X94283000Y-38813000D01*
X95406000Y-32258000D02*
X95406000Y-31996000D01*
X93218000Y-38862000D02*
X94234000Y-38862000D01*
X95406000Y-32258000D02*
X94390000Y-33274000D01*
X94362000Y-33916500D02*
X94362000Y-33317500D01*
D50*
X44943800Y-29808000D02*
X45008800Y-29873000D01*
X52578000Y-28474050D02*
X52578000Y-34557800D01*
X51028600Y-35151000D02*
X51079400Y-35201800D01*
X52578000Y-34557800D02*
X51934000Y-35201800D01*
X38285000Y-29808000D02*
X42545000Y-29808000D01*
X50177550Y-26073600D02*
X52578000Y-28474050D01*
X50419000Y-37174000D02*
X49758600Y-36513600D01*
X49758600Y-35142000D02*
X51019600Y-35142000D01*
X42545000Y-29808000D02*
X44943800Y-29808000D01*
X48818800Y-34823000D02*
X49137800Y-35142000D01*
X37960000Y-31208000D02*
X37960000Y-30133000D01*
X46982968Y-26073600D02*
X50177550Y-26073600D01*
X51934000Y-35201800D02*
X51079400Y-35201800D01*
X51019600Y-35142000D02*
X51079400Y-35201800D01*
X49137800Y-35142000D02*
X49758600Y-35142000D01*
X49758600Y-36513600D02*
X49758600Y-35142000D01*
X51092500Y-37174000D02*
X50419000Y-37174000D01*
X37960000Y-30133000D02*
X38285000Y-29808000D01*
X45008800Y-28047768D02*
X46982968Y-26073600D01*
X45008800Y-29873000D02*
X45008800Y-28047768D01*
D51*
X98983800Y-23254800D02*
X99853800Y-22384800D01*
X96196900Y-27221200D02*
X97238800Y-27221200D01*
X97644000Y-26406001D02*
X98983800Y-25066200D01*
X87545600Y-19546400D02*
X85920000Y-21172000D01*
X98272600Y-20613200D02*
X97205800Y-19546400D01*
X98983800Y-25066200D02*
X98983800Y-23254800D01*
X99745800Y-20613200D02*
X98272600Y-20613200D01*
X99853800Y-22384800D02*
X99853800Y-20721200D01*
X97238800Y-27221200D02*
X97644000Y-26816000D01*
X97205800Y-19546400D02*
X87545600Y-19546400D01*
X97644000Y-26816000D02*
X97644000Y-26406001D01*
X99853800Y-20721200D02*
X99745800Y-20613200D01*
D50*
X98780600Y-21599900D02*
X98352700Y-21172000D01*
D51*
X97790000Y-21299000D02*
X97917000Y-21172000D01*
D50*
X98352700Y-21172000D02*
X94420000Y-21172000D01*
D51*
X97244000Y-26650314D02*
X97244000Y-26240315D01*
X97790000Y-25694315D02*
X97790000Y-21299000D01*
X96196900Y-26721200D02*
X97173114Y-26721200D01*
X97173114Y-26721200D02*
X97244000Y-26650314D01*
X97244000Y-26240315D02*
X97790000Y-25694315D01*
X97175000Y-28721200D02*
X96196900Y-28721200D01*
X98044000Y-27852200D02*
X97175000Y-28721200D01*
X100625400Y-21562400D02*
X100253800Y-21934000D01*
X101422200Y-21562400D02*
X100625400Y-21562400D01*
X100050600Y-24565086D02*
X98044000Y-26571686D01*
X98044000Y-26571686D02*
X98044000Y-27852200D01*
X100050600Y-22753685D02*
X100050600Y-24565086D01*
X100253800Y-22550485D02*
X100050600Y-22753685D01*
X100253800Y-21934000D02*
X100253800Y-22550485D01*
D53*
X92710000Y-32766000D03*
X85598000Y-39116000D03*
X42945657Y-27959657D03*
X96520000Y-32258000D03*
X102285800Y-22797600D03*
X78994000Y-23622000D03*
X90869500Y-24321500D03*
X60344250Y-28448000D03*
X74422000Y-29718000D03*
X74422000Y-34544000D03*
X93731122Y-23108878D03*
X97536000Y-29718000D03*
X88900000Y-29796800D03*
X88925400Y-31327500D03*
X108432600Y-27471200D03*
X76573800Y-37464700D03*
X49691312Y-27778688D03*
X60814500Y-20428500D03*
X75930000Y-24638000D03*
X87799429Y-29198400D03*
X45974000Y-23114000D03*
X48514000Y-23114000D03*
X51054000Y-23114000D03*
X106400600Y-30468400D03*
X56464200Y-36310400D03*
X56464200Y-33770400D03*
X59004200Y-36310400D03*
X59004200Y-33770400D03*
X61544200Y-36310400D03*
X61544200Y-33770400D03*
X64084200Y-36310400D03*
X64084200Y-33770400D03*
X32670000Y-32283000D03*
X38450000Y-32283000D03*
D54*
X31240000Y-31783000D03*
D55*
X31240000Y-35963000D03*
D54*
X39880000Y-31783000D03*
D55*
X39880000Y-35963000D03*
D53*
X22707600Y-21629200D03*
X100203000Y-28411000D03*
X28203000Y-28411000D03*
X107315000Y-20283000D03*
X104775000Y-20283000D03*
X107315000Y-22823000D03*
X104775000Y-22823000D03*
X107315000Y-25363000D03*
X104775000Y-25363000D03*
X20955000Y-36793000D03*
X23495000Y-36793000D03*
X20955000Y-34253000D03*
X23495000Y-34253000D03*
X20955000Y-31713000D03*
X23495000Y-31713000D03*
M02*
